<svg xmlns="http://www.w3.org/2000/svg" width="888" height="1193" viewBox="495 91 888 1193" version="1.1">
	<path d="M 932 116.106 C 764.237 132.686, 611.204 249.427, 548.633 408.558 C 525.280 467.950, 518.973 529.668, 530.461 586.402 C 548.257 674.293, 605.453 754.732, 691.500 812.881 C 737.507 843.972, 775.993 862.218, 861.500 893.477 C 946.612 924.592, 981.214 939.326, 1016 959.264 C 1087.274 1000.117, 1123.219 1050.875, 1120.621 1107 C 1118.687 1148.779, 1096.217 1187.811, 1059.744 1212.748 L 1052.794 1217.500 1041.647 1217.811 L 1030.500 1218.123 1026 1212.422 C 1012.629 1195.482, 986.174 1178.544, 964.384 1172.970 C 949.735 1169.223, 939.987 1168.741, 904.125 1169.987 C 842.421 1172.132, 828.420 1168.684, 806.627 1145.980 C 796.486 1135.414, 795.744 1135.335, 799.058 1145.171 C 804.363 1160.921, 813.771 1174.973, 829.414 1190.514 C 875.459 1236.257, 933.664 1260.585, 986.157 1256.027 C 1035.628 1251.731, 1075.202 1226.881, 1106.437 1180.500 C 1120.232 1160.015, 1135.698 1124.871, 1143.621 1096.006 C 1169.178 1002.896, 1148.511 925.631, 1079.059 854.641 C 1037.861 812.532, 999.854 787.210, 904 738.010 C 838.166 704.218, 813.172 690.386, 787 673.257 C 679.749 603.063, 627.440 513.683, 639.546 421.301 C 657.963 280.762, 797.641 155.182, 958.500 134.541 C 1074.577 119.646, 1194.847 161.210, 1279.573 245.500 C 1307.849 273.630, 1325.124 296.719, 1346.899 335.483 C 1359.482 357.885, 1360.038 356.521, 1347.877 333.083 C 1330.456 299.507, 1320.981 284.282, 1305.562 265.083 C 1242.056 186.011, 1144.207 133.370, 1032 117.913 C 1014.413 115.490, 950.006 114.326, 932 116.106 M 744.286 900.500 C 746.518 965.846, 782.618 1012.145, 844.051 1028.449 C 849.248 1029.828, 865.650 1033.011, 880.500 1035.523 C 998.744 1055.518, 1048.191 1073.016, 1073.059 1103.665 C 1080.773 1113.174, 1082.407 1118.662, 1082.458 1135.248 C 1082.481 1142.810, 1082.776 1148.997, 1083.113 1148.998 C 1085.715 1149.006, 1092.795 1126.209, 1094.209 1113.273 C 1099.148 1068.074, 1071.476 1027.720, 1018 1002.141 C 994.561 990.929, 976.973 985.317, 929.500 973.906 C 832.876 950.678, 793.867 933.149, 755.120 895.545 L 743.739 884.500 744.286 900.500 M 775.624 1033.682 C 779.700 1072.308, 786.258 1091.397, 799.858 1104.227 C 813.127 1116.744, 829.367 1125.716, 847.500 1130.547 C 859.699 1133.797, 864.483 1133.981, 946.500 1134.359 C 1011.917 1134.660, 1009.364 1134.423, 1023.796 1141.551 C 1036.580 1147.865, 1049.462 1162.149, 1055.515 1176.720 L 1057.915 1182.500 1057.923 1174.500 C 1057.975 1117.721, 1013.091 1090.023, 921 1090.003 C 859.891 1089.989, 821.171 1075.747, 784.413 1039.761 C 776.221 1031.740, 775.356 1031.142, 775.624 1033.682" stroke="none" fill="#000" fill-rule="evenodd"/>
</svg>